<svg xmlns="http://www.w3.org/2000/svg" xmlns:xlink="http://www.w3.org/1999/xlink" width="552.103" height="1120.724" viewBox="0 0 552.103 1120.724">
  <defs>
    <clipPath id="clip-path">
      <rect id="Rectangle_200" data-name="Rectangle 200" width="552.103" height="1120.724" fill="none"/>
    </clipPath>
    <clipPath id="clip-path-2">
      <path id="Path_246" data-name="Path 246" d="M464.6,1739.5c-18.633,2.344-35.326-1.54-48.06-5.424-18.324-5.589-28.452-11.178-24.373,1.787,6.914,21.976,22,71.533,41.277,107.407,14.911,27.756,67.876,46.81,91.082,54.011a18.452,18.452,0,0,0,19.562-5.666c7.573-8.909,18-24.033,21.718-43.072,6.107-31.239-40.2-110.114-49.733-127.293-2.1-3.773-3.56-5.285-5.053-5.285-5.3,0-10.956,19.073-46.418,23.533" transform="translate(-391.274 -1715.966)" fill="none"/>
    </clipPath>
    <linearGradient id="linear-gradient" x1="-0.998" y1="0.996" x2="-0.995" y2="0.996" gradientUnits="objectBoundingBox">
      <stop offset="0" stop-color="#53eac9"/>
      <stop offset="0.996" stop-color="#45aed8"/>
      <stop offset="1" stop-color="#45aed8"/>
    </linearGradient>
    <clipPath id="clip-path-3">
      <path id="Path_247" data-name="Path 247" d="M474.18,1673.4s49.9,38.123,113.654,43.117c4.786.375-9.147-31.75-11.2-36.089-9.783-20.642-36.4-32.339-83.221-51.226,0,0-20.019,2.644-19.232,44.2" transform="translate(-474.157 -1629.206)" fill="none"/>
    </clipPath>
    <linearGradient id="linear-gradient-2" x1="-1.68" y1="1.82" x2="-1.676" y2="1.82" gradientUnits="objectBoundingBox">
      <stop offset="0" stop-color="#2b3582"/>
      <stop offset="1" stop-color="#150e42"/>
    </linearGradient>
    <clipPath id="clip-path-4">
      <path id="Path_248" data-name="Path 248" d="M187.879,1135.509c-89.965,89.371,35.933,92.1,62.881,90.566,29.952-1.709,99.365,13.841,99.365,13.841-22.935,26.143-15.592,164.673-15.592,164.673a17.021,17.021,0,0,0,6.445,8.373c10.248,7.169,24.579,2.684,30.108-8.534,34.111-174.969,12.347-218.013,12.347-218.013-120.911-45.892-156.524-56.089-156.524-56.089Z" transform="translate(-155.944 -1130.326)" fill="none"/>
    </clipPath>
    <linearGradient id="linear-gradient-3" x1="0.057" y1="1.381" x2="0.058" y2="1.381" xlink:href="#linear-gradient-2"/>
    <clipPath id="clip-path-5">
      <path id="Path_249" data-name="Path 249" d="M474.182,1705.418s52.829,42.886,116.58,47.88a6.286,6.286,0,0,0,6.105-8.977,158.64,158.64,0,0,0-20.234-31.876c-10.674,4.406-14.27,20.3-42.868,12.227a246.742,246.742,0,0,1-59.525-25.617c-.073,2.019-.1,4.123-.059,6.362" transform="translate(-474.163 -1699.056)" fill="none"/>
    </clipPath>
    <linearGradient id="linear-gradient-4" x1="-2.252" y1="1.795" x2="-2.247" y2="1.795" xlink:href="#linear-gradient-2"/>
    <clipPath id="clip-path-6">
      <path id="Path_250" data-name="Path 250" d="M114.977,1960.226c-1.032,5.837,8.725,20.005,14.653,20.005h40.5c6.182,0,10.97-13.4,9.04-19.275-7.869-23.934-27.861-40.706-27.861-40.706-21.1.061-33.756,25.387-36.336,39.975" transform="translate(-114.901 -1920.251)" fill="none"/>
    </clipPath>
    <linearGradient id="linear-gradient-5" x1="-0.901" y1="1.335" x2="-0.893" y2="1.335" xlink:href="#linear-gradient-2"/>
    <clipPath id="clip-path-7">
      <path id="Path_251" data-name="Path 251" d="M137.108,1878.142s3.975,17.6,7.031,29.228A3.719,3.719,0,0,0,149,1909.9c6.13-2.191,11.117-3.16,14.744-2.674a2.869,2.869,0,0,0,3.161-2.861l.381-29.229Z" transform="translate(-137.108 -1875.141)" fill="none"/>
    </clipPath>
    <linearGradient id="linear-gradient-6" x1="-2.095" y1="2.736" x2="-2.079" y2="2.736" gradientUnits="objectBoundingBox">
      <stop offset="0" stop-color="#f9b776"/>
      <stop offset="1" stop-color="#f47960"/>
    </linearGradient>
    <clipPath id="clip-path-8">
      <path id="Path_252" data-name="Path 252" d="M112.232,1995.552c1.23,21.2,50.063,27.793,58.224,25.938,17.322-19.054,7.93-42.5,3.436-49.664,0,0,9.734,25.874-22.7,25.874s-32.295-31.733-32.295-31.733-7.94,11.734-6.664,29.586" transform="translate(-112.093 -1965.965)" fill="none"/>
    </clipPath>
    <linearGradient id="linear-gradient-7" x1="-0.522" y1="0.794" x2="-0.516" y2="0.794" xlink:href="#linear-gradient-2"/>
    <clipPath id="clip-path-9">
      <path id="Path_253" data-name="Path 253" d="M350.951,910.163c-23.352,87.056,13.542,158.755,13.542,158.755l4.749,56.205,34.686-38.273c-51.137-101.2,3.476-196.263,3.476-196.263-10.391-7.764-19.03-10.722-26.166-10.722-22,0-29.7,28.125-30.287,30.3" transform="translate(-343.205 -879.866)" fill="none"/>
    </clipPath>
    <linearGradient id="linear-gradient-8" x1="-1.308" y1="2.549" x2="-1.303" y2="2.549" xlink:href="#linear-gradient-6"/>
    <clipPath id="clip-path-10">
      <path id="Path_254" data-name="Path 254" d="M193.785,566.165h-.165c-5.812,0-11.921-.308-18.306.427-39.662,3.056-77.16,6.989-106.633,23.545L94.569,667.1s37.14-.4,35.162,9.835c-21.776,49.037-48.423,136.085-44.763,178.163,38.363,33.437,73.361,31.486,100.676,18.686,0,0,25.326-65.989,63.789-117.949,0,0,23.553.2,36.308,2.556a8.079,8.079,0,0,0,9.266-5.8c5.008-18.189,11.59-101.059,9.4-104.2-10.282-14.781-38.968-79.29-108.939-82.521a1.006,1.006,0,0,0-.128-.008c-.478,0-.989.312-1.559.312" transform="translate(-68.681 -565.853)" fill="none"/>
    </clipPath>
    <linearGradient id="linear-gradient-9" x1="0.008" y1="2.239" x2="0.009" y2="2.239" gradientUnits="objectBoundingBox">
      <stop offset="0" stop-color="#53d8ff"/>
      <stop offset="1" stop-color="#3840f7"/>
    </linearGradient>
    <clipPath id="clip-path-11">
      <path id="Path_255" data-name="Path 255" d="M97.919,1516.587l40.73-3.108c-12.058-129.845,12.826-304.183,12.826-304.183l31.6-100.973c-40.963,6.927-73.478-6.214-101.223-30.683-50.163,113.651,16.065,438.947,16.065,438.947" transform="translate(-63.078 -1077.64)" fill="none"/>
    </clipPath>
    <linearGradient id="linear-gradient-10" x1="0.327" y1="1.393" x2="0.328" y2="1.393" xlink:href="#linear-gradient-2"/>
    <clipPath id="clip-path-12">
      <path id="Path_256" data-name="Path 256" d="M328.775,587.383a5.438,5.438,0,0,0,2.472,5.919c7.42,4.451,26.632,13.037,51.617,2.064a8.065,8.065,0,0,0,4.762-7.225l.919-43.222-47.94-7.8Z" transform="translate(-328.628 -537.119)" fill="none"/>
    </clipPath>
    <linearGradient id="linear-gradient-11" x1="-2.379" y1="12.977" x2="-2.371" y2="12.977" xlink:href="#linear-gradient-6"/>
    <clipPath id="clip-path-13">
      <path id="Path_257" data-name="Path 257" d="M329.275,466.9c15.26,37.8,54.279,47.348,72.991,30.425s22.908-68.54,22.908-68.54L351.08,399.378Z" transform="translate(-329.275 -399.378)" fill="none"/>
    </clipPath>
    <linearGradient id="linear-gradient-12" x1="-1.243" y1="6.506" x2="-1.239" y2="6.506" xlink:href="#linear-gradient-6"/>
    <clipPath id="clip-path-14">
      <path id="Path_258" data-name="Path 258" d="M310.247,323.023c-14.98,7.708-16.8,17.331-16.193,23.222a2.53,2.53,0,0,1-3.455,2.626c-4.844-1.887-12.492-2.558-19.205,6.977-9.282,13.183,5.722,23.227,10.2,25.827a2.541,2.541,0,0,1,1.275,2.023c.434,6.539,3.171,35.012,18.442,50.245a2.56,2.56,0,0,0,4.2-.99l9.431-26.9a2.55,2.55,0,0,1,3.041-1.626l4.871,1.252a2.538,2.538,0,0,0,3.173-2.228c.425-4.767,1.633-14.224,4.837-20.808,0,0-2.281-6.6,17.175,2.406s48.66,22.2,64.791,12.328c15.727-9.63,29.563-54.158-12.892-43.505a2.538,2.538,0,0,1-3.174-2.471c.1-7.187-1.6-23.606-18.593-27.886-15.9-4-24.014,3.552-27.277,8.014a2.523,2.523,0,0,1-3.948.175c-3.725-4.3-12.056-12.1-23.49-12.1a28.624,28.624,0,0,0-13.211,3.415" transform="translate(-268.42 -319.608)" fill="none"/>
    </clipPath>
    <linearGradient id="linear-gradient-13" x1="-0.634" y1="6.265" x2="-0.631" y2="6.265" xlink:href="#linear-gradient-2"/>
    <clipPath id="clip-path-16">
      <path id="Path_260" data-name="Path 260" d="M333.88,454.341c-9.679,9.507,4.377,28.3,16.3,31.327l1.75-13.853s-6.054-19.5-13.815-19.5a6.056,6.056,0,0,0-4.238,2.029" transform="translate(-330.653 -452.312)" fill="none"/>
    </clipPath>
    <linearGradient id="linear-gradient-14" x1="-4.462" y1="21.499" x2="-4.448" y2="21.499" xlink:href="#linear-gradient-6"/>
    <clipPath id="clip-path-17">
      <path id="Path_261" data-name="Path 261" d="M436.669,803.876c-.172.372-17.385,37.363-36.868,59.5a1.664,1.664,0,0,0,2.5,2.2c19.8-22.5,37.215-59.923,37.388-60.3a1.663,1.663,0,1,0-3.018-1.4" transform="translate(-399.387 -802.91)" fill="none"/>
    </clipPath>
    <linearGradient id="linear-gradient-15" x1="-2.917" y1="9.191" x2="-2.909" y2="9.191" xlink:href="#linear-gradient-9"/>
    <clipPath id="clip-path-18">
      <path id="Path_262" data-name="Path 262" d="M264.447,1025.857l60.346-3.433-24.122,50.317s-12.831-37.871-36.224-46.884m62.717-36.513c-17.585.99-68.024,4.262-81.937,7.648s-6.338,31.089,14.87,40.168,27.536,41.532,27.536,41.532c10.246,75.376,53.294,244.55,88.183,323.314s59.443,70.678,23.037-6.283S319,1151.82,310.671,1075.9l23.78-57.189s9.97-29.386-6.462-29.387q-.4,0-.825.024" transform="translate(-238.177 -989.32)" fill="none"/>
    </clipPath>
    <linearGradient id="linear-gradient-16" x1="-0.395" y1="1.166" x2="-0.393" y2="1.166" xlink:href="#linear-gradient"/>
    <clipPath id="clip-path-19">
      <path id="Path_263" data-name="Path 263" d="M.388,665.4C13.732,745.714,93.1,809.811,93.1,809.811l62.18,43.928s15,6.734,21.359,4.4,7.711-25.341-1.982-40.719-39.687-11.045-39.687-11.045c-65.142-58.336-93.8-192.59-93.8-192.59C16.8,615.577-3.049,630.1.388,665.4" transform="translate(0 -613.788)" fill="none"/>
    </clipPath>
    <linearGradient id="linear-gradient-17" x1="0.151" y1="2.751" x2="0.153" y2="2.751" xlink:href="#linear-gradient-6"/>
    <clipPath id="clip-path-20">
      <path id="Path_264" data-name="Path 264" d="M342.642,1252.675c5.6,20.915,12.686,31.31,12.686,31.31l19.759-12.235L368.68,1215.2s-31.641,16.557-26.038,37.472" transform="translate(-341.977 -1215.203)" fill="none"/>
    </clipPath>
    <linearGradient id="linear-gradient-18" x1="-2.058" y1="6.486" x2="-2.051" y2="6.486" xlink:href="#linear-gradient-6"/>
    <clipPath id="clip-path-21">
      <path id="Path_265" data-name="Path 265" d="M539.2,1757.189a.824.824,0,0,0-.393,1.1c15.921,33.654,18.227,48.3,15.077,50.773-1.287,1.019-4.051-.034-7.577-2.878a.825.825,0,0,0-1.036,1.284c3,2.422,5.474,3.638,7.385,3.638a3.529,3.529,0,0,0,2.248-.748c6.567-5.17-6.333-35.285-14.607-52.774a.823.823,0,0,0-1.1-.393" transform="translate(-538.723 -1757.109)" fill="none"/>
    </clipPath>
    <linearGradient id="linear-gradient-19" x1="-12.76" y1="3.129" x2="-12.737" y2="3.129" gradientUnits="objectBoundingBox">
      <stop offset="0" stop-color="#9cfffb"/>
      <stop offset="1" stop-color="#9bfffa"/>
    </linearGradient>
    <clipPath id="clip-path-22">
      <path id="Path_266" data-name="Path 266" d="M421.879,1781.642a.825.825,0,0,0-.519,1.044c1.093,3.247,26.906,79.692,39.891,93.98,13.013,14.321,68.143,32.715,70.483,33.49a.84.84,0,0,0,.26.043.825.825,0,0,0,.259-1.608c-.569-.188-57.057-19.03-69.783-33.035-12.753-14.032-39.28-92.6-39.547-93.4a.827.827,0,0,0-.778-.564.792.792,0,0,0-.267.046" transform="translate(-421.317 -1781.596)" fill="none"/>
    </clipPath>
    <linearGradient id="linear-gradient-20" x1="-2.042" y1="1.211" x2="-2.037" y2="1.211" xlink:href="#linear-gradient-19"/>
  </defs>
  <g id="Group_457" data-name="Group 457" transform="translate(0 -0.004)">
    <g id="Group_414" data-name="Group 414" transform="translate(0 0.004)">
      <g id="Group_413" data-name="Group 413" clip-path="url(#clip-path)">
        <path id="Path_245" data-name="Path 245" d="M995.026,187.29a3.052,3.052,0,0,0,2.708-2.931,71.614,71.614,0,0,0-1.665-15.31,3.052,3.052,0,0,0-5.98,1.224,66.323,66.323,0,0,1,1.545,13.881,3.051,3.051,0,0,0,2.948,3.153,3.02,3.02,0,0,0,.444-.016" transform="translate(-453.759 -76.363)" fill="#fff"/>
      </g>
    </g>
    <g id="Group_416" data-name="Group 416" transform="translate(211.941 929.489)">
      <g id="Group_415" data-name="Group 415" clip-path="url(#clip-path-2)">
        <rect id="Rectangle_201" data-name="Rectangle 201" width="200.697" height="200.418" transform="translate(-20.833 1.714) rotate(-5.545)" fill="url(#linear-gradient)"/>
      </g>
    </g>
    <g id="Group_418" data-name="Group 418" transform="translate(256.837 882.494)">
      <g id="Group_417" data-name="Group 417" clip-path="url(#clip-path-3)">
        <rect id="Rectangle_202" data-name="Rectangle 202" width="144.813" height="147.342" transform="matrix(0.666, -0.746, 0.746, 0.666, -44.328, 48.81)" fill="url(#linear-gradient-2)"/>
      </g>
    </g>
    <g id="Group_420" data-name="Group 420" transform="translate(84.47 612.266)">
      <g id="Group_419" data-name="Group 419" clip-path="url(#clip-path-4)">
        <rect id="Rectangle_203" data-name="Rectangle 203" width="406.57" height="412.572" transform="translate(-185.847 213.165) rotate(-59.053)" fill="url(#linear-gradient-3)"/>
      </g>
    </g>
    <g id="Group_422" data-name="Group 422" transform="translate(256.84 920.329)">
      <g id="Group_421" data-name="Group 421" clip-path="url(#clip-path-5)">
        <rect id="Rectangle_204" data-name="Rectangle 204" width="116" height="133.662" transform="matrix(0.57, -0.822, 0.822, 0.57, -25.601, 36.875)" fill="url(#linear-gradient-4)"/>
      </g>
    </g>
    <g id="Group_424" data-name="Group 424" transform="translate(62.238 1040.144)">
      <g id="Group_423" data-name="Group 423" clip-path="url(#clip-path-6)">
        <rect id="Rectangle_205" data-name="Rectangle 205" width="67.723" height="60.612" transform="translate(-1.522 0.005) rotate(-0.541)" fill="url(#linear-gradient-5)"/>
      </g>
    </g>
    <g id="Group_426" data-name="Group 426" transform="translate(74.267 1015.709)">
      <g id="Group_425" data-name="Group 425" clip-path="url(#clip-path-7)">
        <rect id="Rectangle_206" data-name="Rectangle 206" width="34.441" height="39.04" transform="translate(-4.467 0.571) rotate(-7.289)" fill="url(#linear-gradient-6)"/>
      </g>
    </g>
    <g id="Group_428" data-name="Group 428" transform="translate(60.717 1064.906)">
      <g id="Group_427" data-name="Group 427" clip-path="url(#clip-path-8)">
        <rect id="Rectangle_207" data-name="Rectangle 207" width="95.876" height="92.331" transform="translate(-28.874 21.355) rotate(-37.593)" fill="url(#linear-gradient-7)"/>
      </g>
    </g>
    <g id="Group_430" data-name="Group 430" transform="translate(185.904 476.599)">
      <g id="Group_429" data-name="Group 429" clip-path="url(#clip-path-9)">
        <rect id="Rectangle_208" data-name="Rectangle 208" width="116.286" height="254.562" transform="translate(-52.583 5.707) rotate(-8.775)" fill="url(#linear-gradient-8)"/>
      </g>
    </g>
    <g id="Group_432" data-name="Group 432" transform="translate(37.202 306.507)">
      <g id="Group_431" data-name="Group 431" clip-path="url(#clip-path-10)">
        <rect id="Rectangle_209" data-name="Rectangle 209" width="317.255" height="375.535" transform="matrix(0.962, -0.274, 0.274, 0.962, -85.064, 24.246)" fill="url(#linear-gradient-9)"/>
      </g>
    </g>
    <g id="Group_434" data-name="Group 434" transform="translate(34.167 583.727)">
      <g id="Group_433" data-name="Group 433" clip-path="url(#clip-path-11)">
        <rect id="Rectangle_210" data-name="Rectangle 210" width="454.309" height="355.564" transform="translate(-224.981 322.865) rotate(-59.053)" fill="url(#linear-gradient-10)"/>
      </g>
    </g>
    <g id="Group_436" data-name="Group 436" transform="translate(178.008 290.943)">
      <g id="Group_435" data-name="Group 435" clip-path="url(#clip-path-12)">
        <rect id="Rectangle_211" data-name="Rectangle 211" width="72.178" height="63.731" transform="matrix(0.051, -0.999, 0.999, 0.051, -3.886, 69.044)" fill="url(#linear-gradient-11)"/>
      </g>
    </g>
    <g id="Group_438" data-name="Group 438" transform="translate(178.358 216.333)">
      <g id="Group_437" data-name="Group 437" clip-path="url(#clip-path-13)">
        <rect id="Rectangle_212" data-name="Rectangle 212" width="129.811" height="141.017" transform="translate(-37.396 13.843) rotate(-20.312)" fill="url(#linear-gradient-12)"/>
      </g>
    </g>
    <g id="Group_440" data-name="Group 440" transform="translate(145.395 173.124)">
      <g id="Group_439" data-name="Group 439" clip-path="url(#clip-path-14)">
        <rect id="Rectangle_213" data-name="Rectangle 213" width="202.186" height="154.353" transform="translate(-32.384 6.112) rotate(-13.39)" fill="url(#linear-gradient-13)"/>
      </g>
    </g>
    <g id="Group_442" data-name="Group 442" transform="translate(0 0.004)">
      <g id="Group_441" data-name="Group 441" clip-path="url(#clip-path)">
        <path id="Path_259" data-name="Path 259" d="M518.309,430.526a.683.683,0,0,1-.205-1.334c.573-.181,14.025-4.64,12.832-21.341a.683.683,0,0,1,.633-.729.667.667,0,0,1,.73.633c1.272,17.8-13.633,22.693-13.784,22.739a.69.69,0,0,1-.2.032" transform="translate(-237.244 -186.596)" fill="#fff"/>
      </g>
    </g>
    <g id="Group_444" data-name="Group 444" transform="translate(179.104 245.006)">
      <g id="Group_443" data-name="Group 443" clip-path="url(#clip-path-16)">
        <rect id="Rectangle_215" data-name="Rectangle 215" width="37.586" height="40.909" transform="translate(-17.311 4.019) rotate(-20.312)" fill="url(#linear-gradient-14)"/>
      </g>
    </g>
    <g id="Group_446" data-name="Group 446" transform="translate(216.336 434.914)">
      <g id="Group_445" data-name="Group 445" clip-path="url(#clip-path-17)">
        <rect id="Rectangle_216" data-name="Rectangle 216" width="69.241" height="75.275" transform="matrix(0.829, -0.559, 0.559, 0.829, -29.499, 19.763)" fill="url(#linear-gradient-15)"/>
      </g>
    </g>
    <g id="Group_448" data-name="Group 448" transform="translate(129.013 535.887)">
      <g id="Group_447" data-name="Group 447" clip-path="url(#clip-path-18)">
        <rect id="Rectangle_217" data-name="Rectangle 217" width="250.481" height="508.857" transform="matrix(0.995, -0.097, 0.097, 0.995, -54.131, 4.589)" fill="url(#linear-gradient-16)"/>
      </g>
    </g>
    <g id="Group_450" data-name="Group 450" transform="translate(0 332.472)">
      <g id="Group_449" data-name="Group 449" clip-path="url(#clip-path-19)">
        <rect id="Rectangle_218" data-name="Rectangle 218" width="259.592" height="295.42" transform="matrix(0.941, -0.337, 0.337, 0.941, -81.342, 28.034)" fill="url(#linear-gradient-17)"/>
      </g>
    </g>
    <g id="Group_452" data-name="Group 452" transform="translate(185.239 658.241)">
      <g id="Group_451" data-name="Group 451" clip-path="url(#clip-path-20)">
        <rect id="Rectangle_219" data-name="Rectangle 219" width="77.915" height="71.521" transform="matrix(0.595, -0.803, 0.803, 0.595, -37.84, 44.398)" fill="url(#linear-gradient-18)"/>
      </g>
    </g>
    <g id="Group_454" data-name="Group 454" transform="translate(291.81 951.775)">
      <g id="Group_453" data-name="Group 453" clip-path="url(#clip-path-21)">
        <rect id="Rectangle_220" data-name="Rectangle 220" width="22.86" height="53.995" transform="translate(-0.116)" fill="url(#linear-gradient-19)"/>
      </g>
    </g>
    <g id="Group_456" data-name="Group 456" transform="translate(228.214 965.039)">
      <g id="Group_455" data-name="Group 455" clip-path="url(#clip-path-22)">
        <rect id="Rectangle_221" data-name="Rectangle 221" width="111.704" height="128.604" transform="translate(-0.102 0)" fill="url(#linear-gradient-20)"/>
      </g>
    </g>
  </g>
</svg>
